<svg xmlns="http://www.w3.org/2000/svg" width="40" height="40" viewBox="0 0 40 40">
<path d="M4.309,27.897L4.488,27.937L4.653,27.991L19.682,33.435C19.801,33.478 19.927,33.494 20.046,33.484L20.161,33.466L20.271,33.433L34.747,27.995C35.401,27.748 36.137,27.868 36.678,28.309C37.219,28.752 37.483,29.449 37.37,30.138C37.277,30.716 36.93,31.217 36.424,31.513L36.282,31.589L36.131,31.654L21.652,37.092C21.115,37.293 20.546,37.396 19.973,37.396C19.603,37.396 19.235,37.354 18.872,37.268L18.601,37.195L18.345,37.111L3.319,31.667C2.656,31.433 2.17,30.86 2.046,30.167C1.923,29.475 2.18,28.769 2.721,28.32C3.166,27.95 3.749,27.798 4.309,27.897ZM4.332,19.545L4.512,19.589L4.653,19.637L19.681,25.081C19.8,25.124 19.927,25.14 20.045,25.13L20.161,25.112L20.271,25.078L34.747,19.641C35.757,19.258 36.886,19.767 37.269,20.777C37.611,21.678 37.243,22.683 36.419,23.162L36.278,23.237L36.131,23.299L21.653,28.737C21.117,28.939 20.549,29.042 19.976,29.043C19.606,29.043 19.238,29 18.876,28.914L18.605,28.842L18.348,28.757L3.332,23.321C2.659,23.094 2.162,22.52 2.033,21.822C1.904,21.124 2.163,20.41 2.71,19.957C3.165,19.582 3.761,19.433 4.332,19.545ZM21.06,4.13L21.33,4.204L21.583,4.289L35.256,9.329C36.538,9.782 37.395,10.994 37.395,12.354C37.395,13.572 36.705,14.679 35.626,15.221L35.443,15.306L35.265,15.375L21.583,20.419C20.727,20.734 19.799,20.792 18.909,20.588L18.643,20.519L18.39,20.437L4.195,15.392C2.893,14.951 2.017,13.729 2.017,12.354C2.017,11.118 2.726,9.999 3.828,9.466L4.005,9.387L4.185,9.32L18.39,4.271C19.25,3.965 20.178,3.918 21.06,4.13ZM19.815,7.878L19.72,7.904L7.202,12.353L19.72,16.803C19.815,16.836 19.915,16.85 20.007,16.844L20.096,16.832L20.209,16.8L32.271,12.353L20.211,7.908C20.084,7.862 19.947,7.852 19.815,7.878Z" fill="#222222" fill-rule="nonzero"/>
</svg>