<svg xmlns="http://www.w3.org/2000/svg" width="98" height="98" viewBox="0 0 98 98">
<path d="M49,49m-49,0a49,49 0,1 1,98 0a49,49 0,1 1,-98 0" fill="#E6F5EC" fill-rule="evenodd"/>
<path d="M27.85,68.38C27.85,69.855 29.046,71.051 30.52,71.051L41.04,71.051C42.515,71.051 43.71,69.855 43.71,68.38C43.71,66.906 42.515,65.71 41.04,65.71L30.52,65.71C29.046,65.71 27.85,66.906 27.85,68.38ZM24.336,59.873C24.336,61.348 25.532,62.544 27.007,62.544L34.253,62.544C35.728,62.544 36.924,61.348 36.924,59.873C36.924,58.398 35.728,57.203 34.253,57.203L27.007,57.203C25.532,57.203 24.336,58.398 24.336,59.873ZM44.153,26.953C45.291,26.133 46.349,27.677 47.596,29.498C49.103,31.696 50.885,34.297 53.419,33.629C58.017,32.418 58.648,35.077 58.947,36.34L58.954,36.368C60.503,42.884 62.101,49.387 63.725,55.882C68.244,57.854 74.187,62.074 73.938,67.679C73.652,68.756 67.938,68.756 56.796,67.679C55.024,67.679 54.237,66.711 53.605,65.905C46.514,56.875 39.42,47.849 32.322,38.825C31.255,37.471 31.803,36.38 31.978,36.228C31.978,36.09 39.519,30.291 44.153,26.953Z" fill="#3AC981" fill-rule="nonzero"/>
</svg>